# Blender v2.79 (sub 6) OBJ File: ''
# www.blender.org
mtllib corner.mtl
o Cube
v 1.000000 -1.000000 1.000000
v -1.000000 -1.000000 1.000000
v -1.000000 -1.000000 -1.000000
v 0.999999 1.000000 1.000001
v -1.000000 1.000000 1.000000
v -1.000000 1.000000 -1.000000
vn 0.0000 -1.0000 0.0000
vn 0.0000 1.0000 -0.0000
vn -0.0000 -0.0000 1.0000
vn -1.0000 -0.0000 -0.0000
vn 0.7071 0.0000 -0.7071
usemtl Material
s off
f 1//1 2//1 3//1
f 4//2 6//2 5//2
f 1//3 4//3 5//3 2//3
f 2//4 5//4 6//4 3//4
f 4//5 1//5 3//5 6//5
